<?xml version="1.0" encoding="UTF-8" standalone="no"?>
<!DOCTYPE svg PUBLIC "-//W3C//DTD SVG 1.1//EN"
 "http://www.w3.org/Graphics/SVG/1.1/DTD/svg11.dtd">
<!-- Generated by graphviz version 2.28.0 (20110507.0327)
 -->
<!-- Title: G Pages: 1 -->
<svg width="126pt" height="168pt"
 viewBox="0.00 0.00 126.00 168.00" xmlns="http://www.w3.org/2000/svg" xmlns:xlink="http://www.w3.org/1999/xlink">
<g id="graph1" class="graph" transform="scale(1 1) rotate(0) translate(4 164)">
<title>G</title>
<polygon fill="white" stroke="white" points="-4,5 -4,-164 123,-164 123,5 -4,5"/>
<g id="graph2" class="cluster"><title>cluster_Global</title>
<polyline fill="none" stroke="gray" points="20,-8 98,-8 "/>
<path fill="none" stroke="gray" d="M98,-8C104,-8 110,-14 110,-20"/>
<polyline fill="none" stroke="gray" points="110,-20 110,-140 "/>
<path fill="none" stroke="gray" d="M110,-140C110,-146 104,-152 98,-152"/>
<polyline fill="none" stroke="gray" points="98,-152 20,-152 "/>
<path fill="none" stroke="gray" d="M20,-152C14,-152 8,-146 8,-140"/>
<polyline fill="none" stroke="gray" points="8,-140 8,-20 "/>
<path fill="none" stroke="gray" d="M8,-20C8,-14 14,-8 20,-8"/>
<text text-anchor="middle" x="59" y="-139.2" font-family="Times New Roman,serif" font-size="11.00" fill="gray">Global</text>
</g>
<g id="graph3" class="cluster"><title>cluster_\Liebig</title>
<polyline fill="none" stroke="gray" points="28,-16 90,-16 "/>
<path fill="none" stroke="gray" d="M90,-16C96,-16 102,-22 102,-28"/>
<polyline fill="none" stroke="gray" points="102,-28 102,-112 "/>
<path fill="none" stroke="gray" d="M102,-112C102,-118 96,-124 90,-124"/>
<polyline fill="none" stroke="gray" points="90,-124 28,-124 "/>
<path fill="none" stroke="gray" d="M28,-124C22,-124 16,-118 16,-112"/>
<polyline fill="none" stroke="gray" points="16,-112 16,-28 "/>
<path fill="none" stroke="gray" d="M16,-28C16,-22 22,-16 28,-16"/>
<text text-anchor="middle" x="59" y="-111.2" font-family="Times New Roman,serif" font-size="11.00" fill="gray">Liebig</text>
</g>
<g id="graph4" class="cluster"><title>cluster_\Liebig\Cron</title>
<polyline fill="none" stroke="gray" points="36,-24 82,-24 "/>
<path fill="none" stroke="gray" d="M82,-24C88,-24 94,-30 94,-36"/>
<polyline fill="none" stroke="gray" points="94,-36 94,-84 "/>
<path fill="none" stroke="gray" d="M94,-84C94,-90 88,-96 82,-96"/>
<polyline fill="none" stroke="gray" points="82,-96 36,-96 "/>
<path fill="none" stroke="gray" d="M36,-96C30,-96 24,-90 24,-84"/>
<polyline fill="none" stroke="gray" points="24,-84 24,-36 "/>
<path fill="none" stroke="gray" d="M24,-36C24,-30 30,-24 36,-24"/>
<text text-anchor="middle" x="59" y="-83.2" font-family="Times New Roman,serif" font-size="11.00" fill="gray">Cron</text>
</g>
<!-- \\Liebig\\Cron\\Cron -->
<g id="node4" class="node"><title>\\Liebig\\Cron\\Cron</title>
<polygon fill="none" stroke="black" points="86,-68 32,-68 32,-32 86,-32 86,-68"/>
<text text-anchor="middle" x="59" y="-47.2" font-family="Times New Roman,serif" font-size="11.00">Cron</text>
</g>
</g>
</svg>
